<svg width="640" height="640" fill="none" xmlns="http://www.w3.org/2000/svg">
  <g clip-path="url(#clip0)">
    <path d="M458.6 12H181.4C87.843 12 12 87.843 12 181.4v277.2C12 552.157 87.843 628 181.4 628h277.2c93.557 0 169.4-75.843 169.4-169.4V181.4C628 87.843 552.157 12 458.6 12z" fill="#021712"/>
    <path d="M12.3203 448h51.6799V320H128v-64h64v-64h128v64h64v-64h128v64h64v128h-64v128h-64v121.92H219.52l-57.12-2.56-54.08-13.44-38.0798-24.8-29.28-31.04-13.2799-24.32-8.8-23.04-6.56-20.48V448z" fill="#558336"/>
    <path d="M60.4795 576H447.999v64h-262.72l-72-20.48-39.1995-24.64-13.6-18.88z" fill="#2343F9"/>
    <path d="M464 12H176C85.4253 12 12 85.4253 12 176v288c0 90.575 73.4253 164 164 164h288c90.575 0 164-73.425 164-164V176c0-90.5747-73.425-164-164-164z" stroke="#065441" stroke-width="24"/>
    <path d="M512 320H192v64h320v-64z" fill="#fff"/>
    <path d="M512 448H256v64h256v-64z" fill="#994E35"/>
    <path d="M512 320h-64v64h64v-64zM320 320h-64v64h64v-64z" fill="#000"/>
  </g>
  <defs>
    <clipPath id="clip0">
      <path fill="#fff" d="M0 0h640v640H0z"/>
    </clipPath>
  </defs>
</svg>